<svg width="18" height="18" viewBox="0 0 18 18" fill="none" xmlns="http://www.w3.org/2000/svg">
<path fill-rule="evenodd" clip-rule="evenodd" d="M7.50642 12.3348C7.82532 12.3348 8.08384 12.5933 8.08384 12.9122V15.1733C11.2582 13.3191 13.168 12.0075 14.3198 10.8623C14.9883 10.1977 15.3559 9.63099 15.5695 9.09058C15.7842 8.54719 15.879 7.94007 15.879 7.13805C15.879 4.26796 13.5523 1.9413 10.6822 1.9413H6.6403C3.77021 1.9413 1.44354 4.26796 1.44354 7.13805C1.44354 10.0081 3.77021 12.3348 6.6403 12.3348H7.50642ZM8.08384 16.842C15.7798 12.413 17.3225 10.599 17.3225 7.13805C17.3225 3.47072 14.3495 0.497757 10.6822 0.497757H6.6403C2.97296 0.497757 0 3.47072 0 7.13805C0 10.8054 2.97296 13.7783 6.6403 13.7783V16.6754C6.6403 17.1171 7.11604 17.3951 7.49984 17.1764C7.69833 17.0632 7.89298 16.9518 8.08384 16.842Z" fill="#F8F8F8"/>
</svg>
