<svg width="18" height="16" viewBox="0 0 18 16" fill="none" xmlns="http://www.w3.org/2000/svg">
<path d="M12.2726 7.69337L8.86346 11.1025M8.86346 11.1025L5.45437 7.69337M8.86346 11.1025L8.86346 1.55701" stroke="#F8F8F8" stroke-width="1.5" stroke-linecap="round" stroke-linejoin="round"/>
<path fill-rule="evenodd" clip-rule="evenodd" d="M4.09073 4.57954C4.09073 4.07697 3.6151 3.70082 3.1516 3.89508C1.21607 4.70629 0.681641 6.36357 0.681641 9.53819C0.681641 14.7567 2.12573 15.8751 8.86346 15.8751C15.6012 15.8751 17.0453 14.7567 17.0453 9.53819C17.0453 6.36357 16.5108 4.70628 14.5753 3.89508C14.1118 3.70082 13.6362 4.07697 13.6362 4.57954C13.6362 4.9179 13.8612 5.20649 14.1651 5.3553C14.3244 5.43332 14.4546 5.51513 14.5625 5.59869C15.1456 6.05028 15.5453 6.93134 15.5453 9.53819C15.5453 12.145 15.1456 13.0261 14.5625 13.4777C14.2301 13.7352 13.6859 13.976 12.7299 14.1406C11.7743 14.3051 10.522 14.3751 8.86346 14.3751C7.20493 14.3751 5.95265 14.3051 4.99702 14.1406C4.041 13.976 3.49686 13.7352 3.1644 13.4777C2.58134 13.0261 2.18164 12.145 2.18164 9.53819C2.18164 6.93134 2.58134 6.05028 3.1644 5.59869C3.27229 5.51513 3.40248 5.43332 3.56181 5.3553C3.8657 5.20649 4.09073 4.9179 4.09073 4.57954Z" fill="#F8F8F8"/>
</svg>
