<svg width="15" height="14" viewBox="0 0 15 14" fill="none" xmlns="http://www.w3.org/2000/svg">
<path d="M7.42027 13.1606C7.42027 13.1606 0.277786 9.16078 0.277786 4.30388C0.277786 3.44527 0.575267 2.61319 1.11961 1.94919C1.66396 1.28519 2.42155 0.830301 3.26349 0.661914C4.10542 0.493527 4.97969 0.622044 5.73755 1.0256C6.49541 1.42916 7.09004 2.08282 7.42027 2.87539C7.75051 2.08282 8.34514 1.42916 9.103 1.0256C9.86086 0.622044 10.7351 0.493527 11.5771 0.661914C12.419 0.830301 13.1766 1.28519 13.7209 1.94919C14.2653 2.61319 14.5628 3.44527 14.5628 4.30388C14.5628 9.16078 7.42027 13.1606 7.42027 13.1606Z" fill="#FF0000"/>
</svg>
