<svg width="21" height="20" viewBox="0 0 21 20" fill="none" xmlns="http://www.w3.org/2000/svg">
<path d="M15.75 17.5C15.75 15.7319 15.0476 14.0362 13.7974 12.786C12.5471 11.5357 10.8514 10.8333 9.08333 10.8333C7.31522 10.8333 5.61953 11.5357 4.36929 12.786C3.11904 14.0362 2.41666 15.7319 2.41666 17.5" stroke="#F8F8F8" stroke-linecap="round" stroke-linejoin="round"/>
<path d="M9.08333 10.8333C11.3845 10.8333 13.25 8.96785 13.25 6.66667C13.25 4.36548 11.3845 2.5 9.08333 2.5C6.78214 2.5 4.91666 4.36548 4.91666 6.66667C4.91666 8.96785 6.78214 10.8333 9.08333 10.8333Z" stroke="#F8F8F8" stroke-linecap="round" stroke-linejoin="round"/>
<path d="M19.0833 16.6667C19.0833 13.8583 17.4167 11.25 15.75 10C16.2978 9.58898 16.7359 9.04925 17.0255 8.42857C17.315 7.80789 17.4471 7.1254 17.41 6.44151C17.3729 5.75762 17.1678 5.09342 16.8129 4.50768C16.4579 3.92194 15.9641 3.43273 15.375 3.08334" stroke="#F8F8F8" stroke-linecap="round" stroke-linejoin="round"/>
</svg>
