<svg width="197" height="33" viewBox="0 0 197 33" fill="none" xmlns="http://www.w3.org/2000/svg">
<rect y="14.4357" width="2.31457" height="4.05051" rx="1.15729" fill="#F8F8F8"/>
<rect x="6.31458" y="14.4357" width="2.31457" height="4.05051" rx="1.15729" fill="#F8F8F8"/>
<rect x="12.6292" y="14.4357" width="2.31457" height="4.05051" rx="1.15729" fill="#F8F8F8"/>
<rect x="18.9437" y="14.4357" width="2.31457" height="4.05051" rx="1.15729" fill="#F8F8F8"/>
<rect x="25.2583" y="14.4357" width="2.31457" height="4.05051" rx="1.15729" fill="#F8F8F8"/>
<rect x="31.5729" y="14.4357" width="2.31457" height="4.05051" rx="1.15729" fill="#F8F8F8"/>
<rect x="37.8874" y="14.4357" width="2.31457" height="4.05051" rx="1.15729" fill="#F8F8F8"/>
<rect x="44.202" y="14.4357" width="2.31457" height="4.05051" rx="1.15729" fill="#F8F8F8"/>
<rect x="50.5166" y="14.4357" width="2.31457" height="4.05051" rx="1.15729" fill="#F8F8F8"/>
<rect x="56.8312" y="14.4357" width="2.31457" height="4.05051" rx="1.15729" fill="#F8F8F8"/>
<rect x="63.1457" y="14.4357" width="2.31457" height="4.05051" rx="1.15729" fill="#F8F8F8"/>
<rect x="69.4603" y="12.6998" width="2.31457" height="7.52237" rx="1.15729" fill="#F8F8F8"/>
<rect x="75.7749" y="9.80655" width="2.31457" height="13.3088" rx="1.15729" fill="#F8F8F8"/>
<rect x="82.0895" y="0.548248" width="2.31457" height="31.8254" rx="1.15729" fill="#F8F8F8"/>
<rect x="88.404" y="11.5425" width="2.31457" height="9.83694" rx="1.15729" fill="#F8F8F8"/>
<rect x="94.7186" y="13.2784" width="2.31457" height="6.36508" rx="1.15729" fill="#F8F8F8"/>
<g opacity="0.5">
<rect x="101.033" y="14.4355" width="2.31457" height="4.05051" rx="1.15729" fill="#F8F8F8"/>
<rect x="107.348" y="14.4355" width="2.31457" height="4.05051" rx="1.15729" fill="#F8F8F8"/>
<rect x="113.662" y="14.4355" width="2.31457" height="4.05051" rx="1.15729" fill="#F8F8F8"/>
<rect x="119.977" y="14.4355" width="2.31457" height="4.05051" rx="1.15729" fill="#F8F8F8"/>
<rect x="126.291" y="14.4355" width="2.31457" height="4.05051" rx="1.15729" fill="#F8F8F8"/>
<rect x="132.606" y="14.4355" width="2.31457" height="4.05051" rx="1.15729" fill="#F8F8F8"/>
<rect x="138.92" y="14.4355" width="2.31457" height="4.05051" rx="1.15729" fill="#F8F8F8"/>
<rect x="145.235" y="11.4609" width="2" height="10" rx="1" fill="#F8F8F8"/>
<rect x="151.235" y="8.46094" width="2" height="16" rx="1" fill="#F8F8F8"/>
<rect x="157.235" y="4.46094" width="2" height="24" rx="1" fill="#F8F8F8"/>
<rect x="163.235" y="6.46094" width="2" height="20" rx="1" fill="#F8F8F8"/>
<rect x="169.235" y="1.46094" width="2" height="30" rx="1" fill="#F8F8F8"/>
<rect x="175.235" y="10.4609" width="2" height="12" rx="1" fill="#F8F8F8"/>
<rect x="181.235" y="14.4355" width="2.31457" height="4.05051" rx="1.15729" fill="#F8F8F8"/>
<rect x="187.55" y="14.4355" width="2.31457" height="4.05051" rx="1.15729" fill="#F8F8F8"/>
<rect x="193.864" y="14.4357" width="2.31457" height="4.05051" rx="1.15729" fill="#F8F8F8"/>
</g>
</svg>
